<?xml version="1.0" encoding="UTF-8" standalone="no"?>
<!-- Created with Inkscape (http://www.inkscape.org/) -->

<svg
   xmlns:dc="http://purl.org/dc/elements/1.1/"
   xmlns:cc="http://creativecommons.org/ns#"
   xmlns:rdf="http://www.w3.org/1999/02/22-rdf-syntax-ns#"
   xmlns:svg="http://www.w3.org/2000/svg"
   xmlns="http://www.w3.org/2000/svg"
   xmlns:sodipodi="http://sodipodi.sourceforge.net/DTD/sodipodi-0.dtd"
   xmlns:inkscape="http://www.inkscape.org/namespaces/inkscape"
   width="500mm"
   height="164mm"
   viewBox="0 0 500 164"
   version="1.1"
   id="svg902"
   sodipodi:docname="LOGO.svg"
   inkscape:export-filename="C:\AppServ\www\BoxRetail\img\logoLogin.png"
   inkscape:export-xdpi="26"
   inkscape:export-ydpi="26"
   inkscape:version="0.92.3 (2405546, 2018-03-11)">
  <defs
     id="defs896">
    <pattern
       inkscape:isstock="true"
       inkscape:stockid="Stripes 1:1"
       id="Strips1_1"
       patternTransform="translate(0,0) scale(10,10)"
       height="1"
       width="2"
       patternUnits="userSpaceOnUse"
       inkscape:collect="always">
      <rect
         id="rect2211"
         height="2"
         width="1"
         y="-0.5"
         x="0"
         style="fill:black;stroke:none" />
    </pattern>
  </defs>
  <sodipodi:namedview
     id="base"
     pagecolor="#ffffff"
     bordercolor="#666666"
     borderopacity="1.0"
     inkscape:pageopacity="0.0"
     inkscape:pageshadow="2"
     inkscape:zoom="0.35"
     inkscape:cx="-127.14286"
     inkscape:cy="560"
     inkscape:document-units="mm"
     inkscape:current-layer="g879"
     showgrid="false"
     inkscape:pagecheckerboard="true"
     inkscape:window-width="2560"
     inkscape:window-height="1377"
     inkscape:window-x="-8"
     inkscape:window-y="-8"
     inkscape:window-maximized="1" />
  <metadata
     id="metadata899">
    <rdf:RDF>
      <cc:Work
         rdf:about="">
        <dc:format>image/svg+xml</dc:format>
        <dc:type
           rdf:resource="http://purl.org/dc/dcmitype/StillImage" />
        <dc:title></dc:title>
      </cc:Work>
    </rdf:RDF>
  </metadata>
  <g
     inkscape:label="Capa 1"
     inkscape:groupmode="layer"
     id="layer1"
     transform="translate(0,-133)">
    <g
       transform="matrix(4.1341811,0,0,5.1130434,-22.35588,-41.247379)"
       style="fill:#f2f2f2"
       id="g879">
      <text
         transform="matrix(1.1332842,0,0,0.88239121,0,27.516678)"
         id="text817"
         y="42.220558"
         x="2.0964351"
         style="font-style:normal;font-weight:normal;font-size:45.93086243px;line-height:1.25;font-family:sans-serif;letter-spacing:0px;word-spacing:0px;fill:#4d4d4d;fill-opacity:1;stroke:url(#Strips1_1);stroke-width:0.21750313;stroke-opacity:1;stroke-miterlimit:4;stroke-dasharray:none"
         xml:space="preserve"
         inkscape:export-filename="C:\AppServ\www\BoxRetail\img\logoLogin.png"
         inkscape:export-xdpi="26.057484"
         inkscape:export-ydpi="26.057484"><tspan
           style="font-style:normal;font-variant:normal;font-weight:bold;font-stretch:normal;font-family:Romantic;-inkscape-font-specification:'Romantic Bold';fill:#505659;stroke-width:0.21750313;fill-opacity:1;stroke:none;stroke-opacity:1;stroke-miterlimit:4;stroke-dasharray:none"
           y="42.220558"
           x="2.0964351"
           id="tspan815"
           sodipodi:role="line">BOX</tspan></text>
      <text
         id="text821"
         y="53.658924"
         x="42.466679"
         style="font-style:normal;font-weight:normal;font-size:10.58333302px;line-height:1.25;font-family:sans-serif;letter-spacing:0px;word-spacing:0px;fill:#f2f2f2;fill-opacity:1;stroke:none;stroke-width:0.26458332"
         xml:space="preserve"><tspan
           style="font-style:normal;font-variant:normal;font-weight:bold;font-stretch:normal;font-family:sans-serif;-inkscape-font-specification:'sans-serif Bold';fill:#f2f2f2;stroke-width:0.26458332"
           y="53.658924"
           x="42.466679"
           id="tspan819"
           sodipodi:role="line">RETAIL</tspan></text>
      <path
         inkscape:connector-curvature="0"
         id="path823"
         d="M 23.843583,49.031765 H 39.320939"
         style="fill:#ff5555;stroke:#f2f2f2;stroke-width:1.48554361;stroke-linecap:butt;stroke-linejoin:miter;stroke-miterlimit:4;stroke-dasharray:none;stroke-opacity:1" />
      <path
         inkscape:connector-curvature="0"
         id="path823-4"
         d="M 86.984239,49.496333 H 106.72863"
         style="fill:#ff5555;stroke:#f2f2f2;stroke-width:1.67787218;stroke-linecap:butt;stroke-linejoin:miter;stroke-miterlimit:4;stroke-dasharray:none;stroke-opacity:1" />
      <path
         style="opacity:0;fill:#ffffff;fill-opacity:1;stroke:#f2f2f2;stroke-width:23.72463417;stroke-linecap:round;stroke-linejoin:round;stroke-miterlimit:4;stroke-dasharray:none;stroke-dashoffset:0;stroke-opacity:1;paint-order:fill markers stroke"
         d="M 869.83293,601.07286 C 770.06554,590.82129 689.68585,539.93212 649.4666,461.55681 c -19.30625,-37.62212 -32.9409,-82.85715 -24.97462,-82.85715 2.16552,0 3.22231,-8.90174 3.22231,-27.14285 0,-24.64415 0.49364,-27.14286 5.36226,-27.14286 3.73195,0 10.28688,8.25234 21.55984,27.14286 l 16.19758,27.14285 h 19.86873 c 10.9278,0 19.86873,-0.59808 19.86873,-1.32905 0,-0.73098 -6.86249,-11.98098 -15.24998,-25 -24.44449,-37.94263 -23.78469,-35.72852 -13.7436,-46.11955 19.79616,-20.48603 16.80985,-60.40773 -5.377,-71.881 -4.70776,-2.43448 -18.69696,-5.20806 -31.0871,-6.16352 l -22.52752,-1.7372 5.49165,-19.81731 C 655.54754,107.52444 736.06689,38.490405 847.71429,18.344642 c 28.09314,-5.069153 111.90685,-5.069153 140,0 120.30961,21.708775 202.42381,98.862768 225.75501,212.117858 6.3018,30.59059 9.8474,80.11145 7.2336,101.03176 -1.8819,15.06189 -2.3477,15.77683 -10.2791,15.77683 h -8.3079 l -0.7722,-59.28571 -0.7723,-59.28572 -16.4285,-0.85687 -16.4286,-0.85686 v 75.85688 75.85685 h 24.0796 24.0796 l -7.022,26.239 c -12.1478,45.39249 -34.4346,84.46363 -66.706,116.94283 -62.5995,63.00263 -158.48644,90.88757 -272.31257,79.19137 z m 94.27204,-109.36097 c 37.46793,-11.61863 72.57073,-48.24088 86.53333,-90.27928 3.8918,-11.7174 7.7978,-21.94723 8.6801,-22.73295 1.8994,-1.69157 1.891,-1.58923 4.3713,-53.18208 2.2372,-46.53503 -1.2339,-77.18661 -12.2274,-107.97464 -23.2459,-65.10166 -68.90276,-98.84328 -133.74801,-98.84328 -56.19789,0 -98.14493,25.53242 -122.77327,74.72992 C 787.82346,207.6476 782,221.03342 782,223.17585 c 0,2.98271 -6.8613,4.0861 -29.28571,4.70958 l -29.28572,0.81423 -0.76172,75 -0.76173,75 h 28.3009 28.30089 l 1.85435,9.88455 c 1.01989,5.43651 7.0805,20.32608 13.46801,33.08791 19.28103,38.52234 49.02475,62.92409 89.16466,73.15069 18.62245,4.74451 61.0229,3.11831 81.11104,-3.11092 z M 1144.8571,364.41395 v -14.28572 h -10 -10 v -45.53325 -45.53327 l 9.2858,-0.89531 c 9.1187,-0.87921 9.2857,-1.15222 9.2857,-15.18102 V 228.69966 H 1107.7143 1072 v 14.28572 c 0,14.0288 0.1669,14.30181 9.2857,15.18102 l 9.2857,0.89531 v 45.53327 45.53325 h -10 -10 v 14.28572 14.28571 h 37.1429 37.1428 z"
         id="path1465"
         inkscape:connector-curvature="0"
         transform="matrix(0.06399897,0,0,0.05174674,5.4075715,34.078995)" />
      <path
         style="opacity:0;fill:#212529;fill-opacity:1;stroke:#f2f2f2;stroke-width:23.72463417;stroke-linecap:round;stroke-linejoin:round;stroke-miterlimit:4;stroke-dasharray:none;stroke-dashoffset:0;stroke-opacity:1;paint-order:fill markers stroke"
         d="M 869.83293,601.07286 C 770.06554,590.82129 689.68585,539.93212 649.4666,461.55681 c -19.30625,-37.62212 -32.9409,-82.85715 -24.97462,-82.85715 2.16552,0 3.22231,-8.90174 3.22231,-27.14285 0,-24.64415 0.49364,-27.14286 5.36226,-27.14286 3.73195,0 10.28688,8.25234 21.55984,27.14286 l 16.19758,27.14285 h 19.86873 c 10.9278,0 19.86873,-0.59808 19.86873,-1.32905 0,-0.73098 -6.86249,-11.98098 -15.24998,-25 -24.44449,-37.94263 -23.78469,-35.72852 -13.7436,-46.11955 19.79616,-20.48603 16.80985,-60.40773 -5.377,-71.881 -4.70776,-2.43448 -18.69696,-5.20806 -31.0871,-6.16352 l -22.52752,-1.7372 5.49165,-19.81731 C 655.54754,107.52444 736.06689,38.490405 847.71429,18.344642 c 28.09314,-5.069153 111.90685,-5.069153 140,0 120.30961,21.708775 202.42381,98.862768 225.75501,212.117858 6.3018,30.59059 9.8474,80.11145 7.2336,101.03176 -1.8819,15.06189 -2.3477,15.77683 -10.2791,15.77683 h -8.3079 l -0.7722,-59.28571 -0.7723,-59.28572 -16.4285,-0.85687 -16.4286,-0.85686 v 75.85688 75.85685 h 24.0796 24.0796 l -7.022,26.239 c -12.1478,45.39249 -34.4346,84.46363 -66.706,116.94283 -62.5995,63.00263 -158.48644,90.88757 -272.31257,79.19137 z m 94.27204,-109.36097 c 37.46793,-11.61863 72.57073,-48.24088 86.53333,-90.27928 3.8918,-11.7174 7.7978,-21.94723 8.6801,-22.73295 1.8994,-1.69157 1.891,-1.58923 4.3713,-53.18208 2.2372,-46.53503 -1.2339,-77.18661 -12.2274,-107.97464 -23.2459,-65.10166 -68.90276,-98.84328 -133.74801,-98.84328 -56.19789,0 -98.14493,25.53242 -122.77327,74.72992 C 787.82346,207.6476 782,221.03342 782,223.17585 c 0,2.98271 -6.8613,4.0861 -29.28571,4.70958 l -29.28572,0.81423 -0.76172,75 -0.76173,75 h 28.3009 28.30089 l 1.85435,9.88455 c 1.01989,5.43651 7.0805,20.32608 13.46801,33.08791 19.28103,38.52234 49.02475,62.92409 89.16466,73.15069 18.62245,4.74451 61.0229,3.11831 81.11104,-3.11092 z M 1144.8571,364.41395 v -14.28572 h -10 -10 v -45.53325 -45.53327 l 9.2858,-0.89531 c 9.1187,-0.87921 9.2857,-1.15222 9.2857,-15.18102 V 228.69966 H 1107.7143 1072 v 14.28572 c 0,14.0288 0.1669,14.30181 9.2857,15.18102 l 9.2857,0.89531 v 45.53327 45.53325 h -10 -10 v 14.28572 14.28571 h 37.1429 37.1428 z"
         id="path1467"
         inkscape:connector-curvature="0"
         transform="matrix(0.06399897,0,0,0.05174674,5.4075715,34.078995)" />
      <path
         style="opacity:0;fill:#212529;fill-opacity:1;stroke:#f2f2f2;stroke-width:23.72463417;stroke-linecap:round;stroke-linejoin:round;stroke-miterlimit:4;stroke-dasharray:none;stroke-dashoffset:0;stroke-opacity:1;paint-order:fill markers stroke"
         d="m 1276.7472,590.71361 c 0.5319,-1.29815 45.8122,-63.6752 100.623,-138.61569 l 99.6559,-136.2554 h 53.9155 53.9155 v -17.14286 -17.14285 h -59.4046 -59.4047 l -51.3096,-70.6327 c -28.2203,-38.84798 -70.2348,-96.70513 -93.3657,-128.57143 l -42.056,-57.938732 86.3417,0.0087 86.3418,0.0087 61.3151,88.562702 c 33.7233,48.70949 62.009,88.54703 62.8571,88.52787 0.8482,-0.0192 29.8278,-39.85329 64.3992,-88.52028 l 62.8572,-88.485422 82.3115,-0.05116 c 65.0802,-0.04045 81.8699,0.696491 80.2022,3.52027 -1.1601,1.964286 -47.0492,63.900971 -101.9758,137.637082 -91.6401,123.02197 -99.5657,134.55449 -96.2141,140 2.0089,3.26389 48.465,68.49837 103.2358,144.96552 54.7708,76.46714 99.5832,139.78857 99.5832,140.71428 0,0.92572 -38.3633,1.68312 -85.2519,1.68312 h -85.2519 l -64.0338,-94.09529 c -42.0208,-61.748 -65.016,-93.14891 -66.8909,-91.34234 -1.5715,1.51411 -31.1429,43.53557 -65.7143,93.381 l -62.8572,90.62806 -82.3957,0.75851 c -45.3176,0.4172 -81.9605,-0.3036 -81.4285,-1.60171 z"
         id="path1469"
         inkscape:connector-curvature="0"
         transform="matrix(0.06399897,0,0,0.05174674,5.4075715,34.078995)" />
      <path
         style="opacity:0;fill:#212529;fill-opacity:1;stroke:#f2f2f2;stroke-width:23.72463417;stroke-linecap:round;stroke-linejoin:round;stroke-miterlimit:4;stroke-dasharray:none;stroke-dashoffset:0;stroke-opacity:1;paint-order:fill markers stroke"
         d="m 1276.7472,590.71361 c 0.5319,-1.29815 45.8122,-63.6752 100.623,-138.61569 l 99.6559,-136.2554 h 53.9155 53.9155 v -17.14286 -17.14285 h -59.4046 -59.4047 l -51.3096,-70.6327 c -28.2203,-38.84798 -70.2348,-96.70513 -93.3657,-128.57143 l -42.056,-57.938732 86.3417,0.0087 86.3418,0.0087 61.3151,88.562702 c 33.7233,48.70949 62.009,88.54703 62.8571,88.52787 0.8482,-0.0192 29.8278,-39.85329 64.3992,-88.52028 l 62.8572,-88.485422 82.3115,-0.05116 c 65.0802,-0.04045 81.8699,0.696491 80.2022,3.52027 -1.1601,1.964286 -47.0492,63.900971 -101.9758,137.637082 -91.6401,123.02197 -99.5657,134.55449 -96.2141,140 2.0089,3.26389 48.465,68.49837 103.2358,144.96552 54.7708,76.46714 99.5832,139.78857 99.5832,140.71428 0,0.92572 -38.3633,1.68312 -85.2519,1.68312 h -85.2519 l -64.0338,-94.09529 c -42.0208,-61.748 -65.016,-93.14891 -66.8909,-91.34234 -1.5715,1.51411 -31.1429,43.53557 -65.7143,93.381 l -62.8572,90.62806 -82.3957,0.75851 c -45.3176,0.4172 -81.9605,-0.3036 -81.4285,-1.60171 z"
         id="path1471"
         inkscape:connector-curvature="0"
         transform="matrix(0.06399897,0,0,0.05174674,5.4075715,34.078995)" />
    </g>
  </g>
</svg>
